<svg xmlns="http://www.w3.org/2000/svg" viewBox="0 0 180 180" role="img" aria-label="Paladin class model">
  <rect width="180" height="180" rx="18" fill="#20242a"/>
  <ellipse cx="90" cy="158" rx="54" ry="12" fill="#0b0d10" opacity="0.45"/>
  <circle cx="90" cy="27" r="17" fill="none" stroke="#f58cba" stroke-width="5" opacity="0.95"/>
  <rect x="70" y="38" width="40" height="32" rx="5" fill="#c0c2c4"/>
  <rect x="78" y="46" width="24" height="18" fill="#f0c45a"/>
  <rect x="58" y="70" width="64" height="54" rx="5" fill="#6f7478"/>
  <rect x="82" y="70" width="16" height="54" fill="#f0c45a"/>
  <rect x="50" y="74" width="22" height="30" rx="4" fill="#aeb3b6"/>
  <rect x="108" y="74" width="22" height="30" rx="4" fill="#aeb3b6"/>
  <rect x="66" y="124" width="18" height="30" fill="#4b5055"/>
  <rect x="96" y="124" width="18" height="30" fill="#4b5055"/>
  <rect x="48" y="52" width="8" height="92" rx="4" fill="#5a3518" transform="rotate(-28 52 98)"/>
  <rect x="34" y="43" width="34" height="22" rx="4" fill="#c0c2c4" transform="rotate(-28 51 54)"/>
  <rect x="38" y="49" width="26" height="8" rx="2" fill="#f0c45a" transform="rotate(-28 51 53)"/>
  <circle cx="90" cy="98" r="58" fill="none" stroke="#f58cba" stroke-width="4" opacity="0.24"/>
  <circle cx="90" cy="98" r="42" fill="none" stroke="#f0c45a" stroke-width="3" opacity="0.22"/>
</svg>
